# xmcd
#
# Track frame offsets:
#        150
#        13665
#        30335
#        50645
#        66862
#        84507
#        108350
#        123192
#        138462
#        162847
#        181105
#        199960
#        231797
#        250772
#        276310
#        308707
#
# Disc length: 4447 seconds
#
# Revision: 0
# Processed by: cddbd v1.5.1PL2 Copyright (c) Steve Scherf et al.
# Submitted via: ExactAudioCopy v0.95a5
#
DISCID=d4115d10
DTITLE=Lonnie Brooks with Johnny Winter - Wound Up Tight Plus Live Fro
DTITLE=m Chicago
DYEAR=1900
DGENRE=
TTITLE0=Got Lucky Last Night
TTITLE1=Jealous Man
TTITLE2=Belly Rubbin' Music
TTITLE3=Bewitched
TTITLE4=End Of The Rope
TTITLE5=Wound Up Tight
TTITLE6=Boomerang
TTITLE7=Musta' Been Dreamin'
TTITLE8=Skid Row
TTITLE9=Hush Mouth Money
TTITLE10=One More Shot
TTITLE11=Born With The Blues
TTITLE12=Eyeballin'
TTITLE13=Cold Lonely Nights
TTITLE14=Hideaway
TTITLE15=You Know What My Body Needs
EXTD=
EXTT0=
EXTT1=
EXTT2=
EXTT3=
EXTT4=
EXTT5=
EXTT6=
EXTT7=
EXTT8=
EXTT9=
EXTT10=
EXTT11=
EXTT12=
EXTT13=
EXTT14=
EXTT15=
PLAYORDER=
